<svg width="25" height="29" viewBox="0 0 25 29" fill="none" xmlns="http://www.w3.org/2000/svg">
<path d="M8.02492 17.3877C7.76194 17.0831 7.55724 16.7225 7.42316 16.3275C7.28909 15.9326 7.22841 15.5116 7.24481 15.0899C7.2612 14.6683 7.35432 14.2546 7.51855 13.874C7.68278 13.4934 7.9147 13.1537 8.20034 12.8755C8.48598 12.5972 8.8194 12.3861 9.18049 12.2549C9.54158 12.1237 9.92285 12.0751 10.3013 12.1121C10.6797 12.1491 11.0475 12.2709 11.3824 12.4702C11.7173 12.6695 12.0124 12.942 12.2499 13.2715C12.4885 12.9455 12.7839 12.6763 13.1183 12.48C13.4528 12.2838 13.8194 12.1645 14.1963 12.1293C14.5732 12.0941 14.9526 12.1437 15.3118 12.2751C15.671 12.4066 16.0027 12.6172 16.287 12.8943C16.5713 13.1715 16.8023 13.5095 16.9663 13.8881C17.1303 14.2668 17.2239 14.6783 17.2414 15.098C17.259 15.5178 17.2001 15.9371 17.0684 16.331C16.9367 16.7249 16.7349 17.0853 16.4749 17.3905L13.1924 21.3568C13.0753 21.5066 12.9306 21.6267 12.7681 21.709C12.6056 21.7913 12.4291 21.8339 12.2505 21.8339C12.072 21.8339 11.8954 21.7913 11.733 21.709C11.5705 21.6267 11.4258 21.5066 11.3087 21.3568L8.02492 17.3877Z" stroke="#90787A" stroke-width="2" stroke-linecap="round" stroke-linejoin="round"/>
<path d="M1 12.1107C0.999913 11.7066 1.07917 11.3074 1.23223 10.9409C1.3853 10.5744 1.6085 10.2495 1.88625 9.98866L10.6362 1.65616C11.0875 1.23246 11.6592 1 12.25 1C12.8408 1 13.4125 1.23246 13.8638 1.65616L22.6138 9.98866C22.8915 10.2495 23.1147 10.5744 23.2678 10.9409C23.4208 11.3074 23.5001 11.7066 23.5 12.1107V24.6094C23.5 25.3461 23.2366 26.0525 22.7678 26.5734C22.2989 27.0943 21.663 27.3869 21 27.3869H3.5C2.83696 27.3869 2.20107 27.0943 1.73223 26.5734C1.26339 26.0525 1 25.3461 1 24.6094V12.1107Z" stroke="#90787A" stroke-width="2" stroke-linecap="round" stroke-linejoin="round"/>
</svg>
