<svg width="25" height="25" viewBox="0 0 25 25" fill="none" xmlns="http://www.w3.org/2000/svg">
<path d="M23.2143 14.2857H14.2857V23.2143C14.2857 23.6879 14.0976 24.1421 13.7627 24.477C13.4278 24.8119 12.9736 25 12.5 25C12.0264 25 11.5722 24.8119 11.2373 24.477C10.9024 24.1421 10.7143 23.6879 10.7143 23.2143V14.2857H1.78571C1.31211 14.2857 0.85791 14.0976 0.523024 13.7627C0.188138 13.4278 0 12.9736 0 12.5C0 12.0264 0.188138 11.5722 0.523024 11.2373C0.85791 10.9024 1.31211 10.7143 1.78571 10.7143H10.7143V1.78571C10.7143 1.31211 10.9024 0.85791 11.2373 0.523023C11.5722 0.188137 12.0264 0 12.5 0C12.9736 0 13.4278 0.188137 13.7627 0.523023C14.0976 0.85791 14.2857 1.31211 14.2857 1.78571V10.7143H23.2143C23.6879 10.7143 24.1421 10.9024 24.477 11.2373C24.8119 11.5722 25 12.0264 25 12.5C25 12.9736 24.8119 13.4278 24.477 13.7627C24.1421 14.0976 23.6879 14.2857 23.2143 14.2857Z" fill="white"/>
</svg>
