<svg width="18" height="18" viewBox="0 0 18 18" fill="none" xmlns="http://www.w3.org/2000/svg">
<circle cx="9" cy="9" r="9" fill="#DBFBED"/>
<path d="M8.33325 13.6667C7.09059 13.6667 6.46925 13.6667 5.97992 13.4634C5.65628 13.3295 5.36218 13.1332 5.11442 12.8857C4.86666 12.6381 4.67008 12.3442 4.53592 12.0207C4.33325 11.5307 4.33325 10.9094 4.33325 9.66671V9.00004C4.33325 7.12737 4.33325 6.19137 4.78259 5.51871C4.97719 5.22741 5.22729 4.97731 5.51859 4.78271C6.19125 4.33337 7.12659 4.33337 8.99992 4.33337H9.99992C10.9306 4.33337 11.3953 4.33337 11.7739 4.44804C12.1936 4.57533 12.5755 4.80418 12.8856 5.11432C13.1958 5.42446 13.4246 5.80631 13.5519 6.22604C13.6666 6.60471 13.6666 7.06937 13.6666 8.00004" stroke="#51B88C" stroke-linecap="round" stroke-linejoin="round"/>
<path d="M11.6665 9.66675V11.6667M11.6665 11.6667V13.6667M11.6665 11.6667H13.6665M11.6665 11.6667H9.6665" stroke="#51B88C" stroke-linecap="round"/>
<path d="M5.33325 12.6667L12.6666 5.33337M13.6613 8.00004H13.6679M8.32792 13.6667H8.33459M4.33325 9.66671L9.66659 4.33337" stroke="#51B88C" stroke-linecap="round" stroke-linejoin="round"/>
</svg>
