<svg width="19" height="21" viewBox="0 0 19 21" fill="none" xmlns="http://www.w3.org/2000/svg">
<path d="M16.5001 2.72222C16.9716 2.72222 17.4238 2.95634 17.7572 3.37309C18.0906 3.78984 18.2779 4.35507 18.2779 4.94444V12.7222C18.2779 13.3116 18.0906 13.8768 17.7572 14.2935C17.4238 14.7103 16.9716 14.9444 16.5001 14.9444H6.72236C6.25086 14.9444 5.79868 14.7103 5.46528 14.2935C5.13188 13.8768 4.94458 13.3116 4.94458 12.7222V2.72222C4.94458 2.13285 5.13188 1.56762 5.46528 1.15087C5.79868 0.734126 6.25086 0.5 6.72236 0.5H8.94457C9.15157 0.5 9.35572 0.560242 9.54086 0.675954C9.726 0.791667 9.88704 0.959672 10.0112 1.16667L10.5446 2.05555C10.6688 2.26255 10.8298 2.43055 11.015 2.54626C11.2001 2.66198 11.4042 2.72222 11.6112 2.72222H16.5001Z" stroke="#2D342D" stroke-linecap="round" stroke-linejoin="round"/>
<path d="M1.3889 6.35327C1.11786 6.54887 0.892939 6.83044 0.73686 7.16952C0.580781 7.5086 0.499078 7.89318 0.500008 8.28438V18.2777C0.500008 18.8671 0.687309 19.4323 1.02071 19.849C1.3541 20.2658 1.80629 20.4999 2.27778 20.4999H12.0555C12.3676 20.4999 12.6742 20.3972 12.9444 20.2022C13.2147 20.0071 13.4391 19.7266 13.5951 19.3888" stroke="#2D342D" stroke-linecap="round" stroke-linejoin="round"/>
</svg>
