<svg width="55" height="55" viewBox="0 0 55 55" fill="none" xmlns="http://www.w3.org/2000/svg">
<path d="M40.1041 43.5417H20.625C17.6501 43.5409 14.734 42.7129 12.2026 41.1502C9.67116 39.5875 7.62415 37.3517 6.29029 34.6926C4.95643 32.0335 4.38826 29.0559 4.64928 26.0925C4.91029 23.1291 5.99021 20.2966 7.76836 17.9116C9.5465 15.5266 11.9528 13.683 14.7184 12.5869C17.484 11.4908 20.4999 11.1853 23.4292 11.7046C26.3584 12.2239 29.0855 13.5474 31.3058 15.5274C33.5261 17.5074 35.1521 20.0658 36.002 22.9167H40.1041C42.8392 22.9167 45.4622 24.0031 47.3962 25.9371C49.3301 27.8711 50.4166 30.4941 50.4166 33.2292C50.4166 35.9642 49.3301 38.5872 47.3962 40.5212C45.4622 42.4552 42.8392 43.5417 40.1041 43.5417Z" stroke="white" stroke-width="2" stroke-linecap="round" stroke-linejoin="round"/>
</svg>
