<svg width="18" height="18" viewBox="0 0 18 18" fill="none" xmlns="http://www.w3.org/2000/svg">
<circle cx="9" cy="9" r="9" fill="#F6FFFB"/>
<path fill-rule="evenodd" clip-rule="evenodd" d="M3.47046 7.15719C3.50732 4.66291 6.25274 2.34348 8.91246 5.36919C8.93415 5.39312 8.96061 5.41223 8.99014 5.42531C9.01966 5.43839 9.0516 5.44515 9.08389 5.44515C9.11618 5.44515 9.14812 5.43839 9.17764 5.42531C9.20716 5.41223 9.23362 5.39312 9.25532 5.36919C11.9159 2.34348 14.6613 4.66205 14.6982 7.15719C14.6982 10.9526 10.157 14.0675 9.08389 14.0675C8.27903 14.0675 5.52417 12.3155 4.19646 9.83834C4.1795 9.80659 4.17117 9.77095 4.17229 9.73497C4.17342 9.69899 4.18397 9.66394 4.20288 9.63332C4.22179 9.60269 4.24841 9.57757 4.28007 9.56045C4.31173 9.54333 4.34733 9.53482 4.38332 9.53577H5.69817C5.77728 9.53551 5.85537 9.51787 5.92691 9.4841C5.99845 9.45033 6.06169 9.40125 6.11217 9.34034L6.92474 8.35034C6.94632 8.32409 6.97383 8.30334 7.005 8.28981C7.03617 8.27629 7.07011 8.27037 7.10403 8.27255C7.13794 8.27472 7.17084 8.28493 7.20003 8.30233C7.22922 8.31974 7.25385 8.34383 7.27189 8.37262L8.68446 10.6312C8.72955 10.7033 8.79114 10.7636 8.86415 10.8071C8.93715 10.8507 9.01948 10.8762 9.10432 10.8817C9.18916 10.8871 9.27407 10.8723 9.35205 10.8384C9.43002 10.8046 9.49882 10.7526 9.55274 10.6869L10.8025 9.16462C10.8227 9.14011 10.8481 9.12039 10.8768 9.1069C10.9056 9.09341 10.937 9.08649 10.9687 9.08662H12.0882C12.2303 9.08662 12.3665 9.03018 12.467 8.92972C12.5674 8.82925 12.6239 8.69299 12.6239 8.55091C12.6239 8.40883 12.5674 8.27257 12.467 8.1721C12.3665 8.07164 12.2303 8.01519 12.0882 8.01519H10.6139C10.5348 8.01546 10.4567 8.0331 10.3852 8.06687C10.3136 8.10064 10.2504 8.14971 10.1999 8.21062L9.38732 9.20062C9.36574 9.22688 9.33823 9.24762 9.30706 9.26115C9.27589 9.27467 9.24195 9.28059 9.20804 9.27842C9.17412 9.27624 9.14122 9.26603 9.11203 9.24863C9.08284 9.23123 9.05821 9.20713 9.04017 9.17834L7.62674 6.91977C7.58166 6.8477 7.52006 6.78739 7.44706 6.74383C7.37405 6.70028 7.29173 6.67472 7.20689 6.66928C7.12205 6.66383 7.03713 6.67866 6.95916 6.71253C6.88118 6.7464 6.81239 6.79833 6.75846 6.86405L5.5096 8.38634C5.4894 8.41085 5.464 8.43057 5.43524 8.44406C5.40648 8.45755 5.37508 8.46447 5.34332 8.46434H3.81074C3.76337 8.46487 3.71722 8.4493 3.67985 8.42018C3.64247 8.39107 3.6161 8.35012 3.60503 8.30405C3.51755 7.928 3.47184 7.54329 3.47046 7.15719Z" fill="#F3928E"/>
</svg>
