<svg width="12" height="11" viewBox="0 0 12 11" fill="none" xmlns="http://www.w3.org/2000/svg">
<path d="M2.4 11C2.23 11 2.0876 10.9413 1.9728 10.824C1.858 10.7067 1.8004 10.5616 1.8 10.3889C1.7996 10.2161 1.8572 10.0711 1.9728 9.95377C2.0884 9.83644 2.2308 9.77777 2.4 9.77777H9.6C9.77 9.77777 9.91259 9.83644 10.0278 9.95377C10.143 10.0711 10.2004 10.2161 10.2 10.3889C10.1996 10.5616 10.142 10.7069 10.0272 10.8246C9.9124 10.9423 9.77 11.0008 9.6 11H2.4ZM2.82 8.8611C2.53 8.8611 2.2726 8.76435 2.0478 8.57083C1.823 8.37731 1.6854 8.13286 1.635 7.83749L1.035 3.95694C1.015 3.95694 0.992601 3.95959 0.967801 3.96489C0.943001 3.97018 0.920401 3.97263 0.900001 3.97222C0.650001 3.97222 0.437601 3.8832 0.262801 3.70516C0.0880013 3.52713 0.000401363 3.31059 1.36364e-06 3.05555C-0.000398636 2.80052 0.0872013 2.58418 0.262801 2.40655C0.438401 2.22893 0.650801 2.1397 0.900001 2.13889C1.1492 2.13807 1.3618 2.2273 1.5378 2.40655C1.7138 2.58581 1.8012 2.80215 1.8 3.05555C1.8 3.12685 1.7924 3.19305 1.7772 3.25417C1.762 3.31528 1.7446 3.37129 1.725 3.42222L3.6 4.27778L5.475 1.66528C5.365 1.5838 5.275 1.47685 5.205 1.34444C5.135 1.21204 5.1 1.06944 5.1 0.916667C5.1 0.662038 5.1876 0.445501 5.3628 0.267057C5.538 0.0886124 5.7504 -0.000406015 6 1.39205e-06C6.2496 0.000408799 6.4622 0.0896309 6.6378 0.267668C6.8134 0.445705 6.9008 0.662038 6.9 0.916667C6.9 1.06944 6.865 1.21204 6.795 1.34444C6.725 1.47685 6.635 1.5838 6.525 1.66528L8.4 4.27778L10.275 3.42222C10.255 3.37129 10.2374 3.31528 10.2222 3.25417C10.207 3.19305 10.1996 3.12685 10.2 3.05555C10.2 2.80093 10.2876 2.58439 10.4628 2.40594C10.638 2.2275 10.8504 2.13848 11.1 2.13889C11.3496 2.1393 11.5622 2.22852 11.7378 2.40655C11.9134 2.58459 12.0008 2.80093 12 3.05555C11.9992 3.31018 11.9118 3.52672 11.7378 3.70516C11.5638 3.88361 11.3512 3.97263 11.1 3.97222C11.08 3.97222 11.0576 3.96978 11.0328 3.96489C11.008 3.96 10.9854 3.95735 10.965 3.95694L10.365 7.83749C10.315 8.13286 10.1776 8.37731 9.9528 8.57083C9.72799 8.76435 9.4704 8.8611 9.18 8.8611H2.82Z" fill="#5B514D"/>
</svg>
