<svg width="16" height="17" viewBox="0 0 16 17" fill="none" xmlns="http://www.w3.org/2000/svg">
<path d="M12.616 0.000999928C13.4467 0.0143333 14.1543 0.31 14.739 0.888C15.3237 1.466 15.616 2.17033 15.616 3.001C15.616 3.159 15.6067 3.379 15.588 3.661C15.5693 3.943 15.535 4.278 15.485 4.666L14.091 14.742C14.0463 15.1313 13.874 15.4427 13.574 15.676C13.2747 15.9093 12.9303 16.026 12.541 16.026C12.273 16.026 12.0373 15.9523 11.834 15.805C11.6307 15.6577 11.4527 15.4787 11.3 15.268L8.337 11.234C8.265 11.1413 8.185 11.0667 8.097 11.01C8.00967 10.9527 7.905 10.924 7.783 10.924C7.665 10.924 7.48033 11.044 7.229 11.284L4.341 15.194C4.17167 15.4113 3.977 15.6043 3.757 15.773C3.537 15.9417 3.293 16.026 3.025 16.026C2.63567 16.026 2.29567 15.9053 2.005 15.664C1.71367 15.422 1.54533 15.1063 1.5 14.717L0.131 4.666C0.081 4.27867 0.0466665 3.94367 0.0279999 3.661C0.00933321 3.37833 0 3.158 0 3C0 2.16933 0.292333 1.46167 0.877 0.877C1.46167 0.292333 2.16933 0 3 0C3.48467 0 3.9 0.0793332 4.246 0.238C4.592 0.396667 4.93133 0.567333 5.264 0.75C5.59667 0.932667 5.96033 1.10367 6.355 1.263C6.74967 1.42233 7.234 1.50167 7.808 1.501C8.39467 1.501 8.88867 1.42167 9.29 1.263C9.69133 1.10433 10.058 0.933667 10.39 0.751C10.722 0.568333 11.0593 0.397333 11.402 0.238C11.7447 0.0786666 12.1493 -0.000333406 12.616 0.000999928ZM12.616 1.001C12.2327 1.001 11.895 1.08033 11.603 1.239C11.311 1.39767 10.9967 1.56833 10.66 1.751C10.3233 1.93367 9.93433 2.10467 9.493 2.264C9.05167 2.42333 8.49 2.50233 7.808 2.501C7.15133 2.501 6.60267 2.42167 6.162 2.263C5.72067 2.105 5.33167 1.93433 4.995 1.751C4.65833 1.56767 4.33733 1.39667 4.032 1.238C3.72667 1.07933 3.38267 1.00033 3 1.001C2.45 1.001 1.97933 1.197 1.588 1.589C1.19667 1.981 1.00067 2.45167 1 3.001C1 3.13433 1.00833 3.326 1.025 3.576C1.04167 3.826 1.075 4.11767 1.125 4.451L2.5 14.576C2.51667 14.7093 2.575 14.8137 2.675 14.889C2.775 14.9643 2.89167 15.0017 3.025 15.001C3.147 15.001 3.251 14.9557 3.337 14.865C3.423 14.7737 3.50167 14.6753 3.573 14.57L6.406 10.716C6.57533 10.4853 6.779 10.2957 7.017 10.147C7.25567 9.99833 7.51933 9.924 7.808 9.924C8.08333 9.924 8.34333 9.99833 8.588 10.147C8.83267 10.2957 9.04 10.4857 9.21 10.717L12.073 14.645C12.145 14.7337 12.2157 14.8193 12.285 14.902C12.3543 14.9847 12.4477 15.026 12.565 15.026C12.6983 15.026 12.8193 14.9883 12.928 14.913C13.0367 14.8377 13.0993 14.7337 13.116 14.601L14.491 4.451C14.541 4.11767 14.5743 3.826 14.591 3.576C14.6077 3.326 14.616 3.13433 14.616 3.001C14.616 2.451 14.42 1.98 14.028 1.588C13.636 1.196 13.1653 1.00033 12.616 1.001Z" fill="white"/>
</svg>
