<svg width="35" height="35" viewBox="0 0 35 35" fill="none" xmlns="http://www.w3.org/2000/svg">
<path d="M25.5209 27.7084H13.125C11.2319 27.7079 9.37623 27.181 7.76533 26.1865C6.15443 25.1921 4.85179 23.7693 4.00297 22.0772C3.15415 20.385 2.79258 18.4902 2.95869 16.6043C3.12479 14.7185 3.81201 12.9161 4.94356 11.3983C6.0751 9.8806 7.6064 8.70743 9.36632 8.0099C11.1262 7.31237 13.0455 7.11796 14.9095 7.44841C16.7736 7.77885 18.509 8.62113 19.9219 9.88111C21.3348 11.1411 22.3696 12.7692 22.9104 14.5834H25.5209C27.2613 14.5834 28.9305 15.2748 30.1613 16.5055C31.392 17.7362 32.0834 19.4054 32.0834 21.1459C32.0834 22.8863 31.392 24.5555 30.1613 25.7862C28.9305 27.017 27.2613 27.7084 25.5209 27.7084Z" stroke="white" stroke-width="2" stroke-linecap="round" stroke-linejoin="round"/>
</svg>
