<svg width="21" height="15" viewBox="0 0 21 15" fill="none" xmlns="http://www.w3.org/2000/svg">
<path d="M13.5 7.5C13.5 8.29565 13.1839 9.05871 12.6213 9.62132C12.0587 10.1839 11.2956 10.5 10.5 10.5C9.70435 10.5 8.94129 10.1839 8.37868 9.62132C7.81607 9.05871 7.5 8.29565 7.5 7.5C7.5 6.70435 7.81607 5.94129 8.37868 5.37868C8.94129 4.81607 9.70435 4.5 10.5 4.5C11.2956 4.5 12.0587 4.81607 12.6213 5.37868C13.1839 5.94129 13.5 6.70435 13.5 7.5Z" stroke="white" stroke-linecap="round" stroke-linejoin="round"/>
<path d="M0.5 7.5C2.1 3.403 5.836 0.5 10.5 0.5C15.164 0.5 18.9 3.403 20.5 7.5C18.9 11.597 15.164 14.5 10.5 14.5C5.836 14.5 2.1 11.597 0.5 7.5Z" stroke="white" stroke-linecap="round" stroke-linejoin="round"/>
</svg>
