<svg width="50" height="50" viewBox="0 0 50 50" fill="none" xmlns="http://www.w3.org/2000/svg">
<path d="M12.4999 45.8333C11.3948 45.8333 10.335 45.3943 9.55364 44.6129C8.77224 43.8315 8.33325 42.7717 8.33325 41.6667V8.33333C8.33325 7.22826 8.77224 6.16845 9.55364 5.38705C10.335 4.60565 11.3948 4.16666 12.4999 4.16666H29.1666C29.8261 4.16559 30.4793 4.295 31.0885 4.54743C31.6978 4.79986 32.2511 5.17033 32.7166 5.6375L40.1916 13.1125C40.66 13.5781 41.0315 14.132 41.2847 14.742C41.5379 15.352 41.6677 16.0062 41.6666 16.6667V41.6667C41.6666 42.7717 41.2276 43.8315 40.4462 44.6129C39.6648 45.3943 38.605 45.8333 37.4999 45.8333H12.4999Z" stroke="white" stroke-width="2" stroke-linecap="round" stroke-linejoin="round"/>
<path d="M29.1667 4.16666V14.5833C29.1667 15.1359 29.3862 15.6658 29.7769 16.0565C30.1676 16.4472 30.6975 16.6667 31.2501 16.6667H41.6667" stroke="white" stroke-width="2" stroke-linecap="round" stroke-linejoin="round"/>
<path d="M18.75 31.25L22.9167 35.4167L31.25 27.0833" stroke="white" stroke-width="2" stroke-linecap="round" stroke-linejoin="round"/>
</svg>
