<svg width="32" height="32" viewBox="0 0 32 32" fill="none" xmlns="http://www.w3.org/2000/svg">
<path d="M2.66663 12V6.66667C2.66663 5.95943 2.94758 5.28115 3.44767 4.78105C3.94777 4.28096 4.62605 4.00001 5.33329 4.00001H10.5333C10.9793 3.99563 11.4192 4.10319 11.8129 4.31283C12.2066 4.52248 12.5413 4.82751 12.7866 5.20001L13.8666 6.80001C14.1094 7.16871 14.44 7.47137 14.8286 7.68081C15.2173 7.89025 15.6518 7.99993 16.0933 8.00001H26.6666C27.3739 8.00001 28.0521 8.28096 28.5522 8.78106C29.0523 9.28115 29.3333 9.95943 29.3333 10.6667V24C29.3333 24.7073 29.0523 25.3855 28.5522 25.8856C28.0521 26.3857 27.3739 26.6667 26.6666 26.6667H5.33329C4.62605 26.6667 3.94777 26.3857 3.44767 25.8856C2.94758 25.3855 2.66663 24.7073 2.66663 24V22.6667" stroke="white" stroke-width="2" stroke-linecap="round" stroke-linejoin="round"/>
<path d="M2.66663 17.3333H16" stroke="white" stroke-width="2" stroke-linecap="round" stroke-linejoin="round"/>
<path d="M12 21.3333L16 17.3333L12 13.3333" stroke="white" stroke-width="2" stroke-linecap="round" stroke-linejoin="round"/>
</svg>
