<svg width="18" height="18" viewBox="0 0 18 18" fill="none" xmlns="http://www.w3.org/2000/svg">
<circle cx="9" cy="9" r="9" fill="#F6FFFB"/>
<path fill-rule="evenodd" clip-rule="evenodd" d="M9 3L8.60571 3.39262L8.60286 3.39502L8.59371 3.40399C8.54423 3.4539 8.49546 3.50458 8.44743 3.55601C7.86363 4.17477 7.32211 4.83575 6.82686 5.53409C5.96114 6.75624 5 8.46439 5 10.1121C5 12.308 6.83943 14 9 14C11.1606 14 13 12.308 13 10.1127C13 8.46499 12.0383 6.75684 11.1737 5.53409C10.6459 4.7904 10.0656 4.08918 9.43771 3.43631L9.40629 3.40399L9.39714 3.39502L9.39486 3.39262L9 3ZM7.91314 10.1803C7.86509 10.031 7.76273 9.90748 7.62829 9.83669C7.49384 9.7659 7.33816 9.75352 7.19505 9.80222C7.05194 9.85093 6.93294 9.95679 6.8639 10.0968C6.79486 10.2369 6.78134 10.3998 6.82629 10.5502C6.97543 11.031 7.26608 11.45 7.65656 11.7472C8.04704 12.0444 8.51732 12.2044 9 12.2045C9.15155 12.2045 9.2969 12.1414 9.40406 12.0292C9.51122 11.9169 9.57143 11.7647 9.57143 11.606C9.57143 11.4472 9.51122 11.295 9.40406 11.1828C9.2969 11.0705 9.15155 11.0075 9 11.0075C8.75866 11.0074 8.52352 10.9274 8.32828 10.7788C8.13304 10.6302 7.98772 10.4207 7.91314 10.1803Z" fill="#F3928E"/>
</svg>
