<svg width="27" height="28" viewBox="0 0 27 28" fill="none" xmlns="http://www.w3.org/2000/svg">
<path d="M17.688 9.42725V12.7982" stroke="#90787A" stroke-width="2" stroke-linecap="round" stroke-linejoin="round"/>
<path d="M25.2733 17.8548C25.2733 18.7488 24.9536 19.6062 24.3846 20.2384C23.8156 20.8706 23.0438 21.2257 22.2391 21.2257H8.32446C7.51982 21.2259 6.7482 21.5812 6.17931 22.2134L2.8387 25.9248C2.68806 26.0922 2.49615 26.2061 2.28723 26.2523C2.0783 26.2984 1.86175 26.2747 1.66495 26.1842C1.46815 26.0936 1.29993 25.9402 1.18157 25.7435C1.06321 25.5467 1.00003 25.3154 1 25.0787V4.37095C1 3.47692 1.31967 2.61951 1.88869 1.98733C2.4577 1.35515 3.22945 1 4.03416 1H22.2391C23.0438 1 23.8156 1.35515 24.3846 1.98733C24.9536 2.61951 25.2733 3.47692 25.2733 4.37095V17.8548Z" stroke="#90787A" stroke-width="2" stroke-linecap="round" stroke-linejoin="round"/>
<path d="M8.58545 9.42725V12.7982" stroke="#90787A" stroke-width="2" stroke-linecap="round" stroke-linejoin="round"/>
</svg>
