<svg width="67" height="67" viewBox="0 0 67 67" fill="none" xmlns="http://www.w3.org/2000/svg">
<path fill-rule="evenodd" clip-rule="evenodd" d="M33.5001 23.7292C34.9809 23.7292 36.4011 23.1409 37.4481 22.0938C38.4952 21.0468 39.0835 19.6266 39.0835 18.1458C39.0835 16.665 38.4952 15.2449 37.4481 14.1978C36.4011 13.1507 34.9809 12.5625 33.5001 12.5625C32.0193 12.5625 30.5992 13.1507 29.5521 14.1978C28.505 15.2449 27.9168 16.665 27.9168 18.1458C27.9168 19.6266 28.505 21.0468 29.5521 22.0938C30.5992 23.1409 32.0193 23.7292 33.5001 23.7292ZM49.4629 26.4985C49.6492 27.215 49.5433 27.9762 49.1685 28.6147C48.7936 29.2531 48.1805 29.7165 47.464 29.9029C44.946 30.559 42.6568 31.0615 40.4793 31.4049V40.3047L41.8542 51.2997C41.9428 52.0057 41.7585 52.7188 41.3389 53.2935C40.9193 53.8682 40.2962 54.2609 39.5967 54.3915C38.8973 54.5222 38.1744 54.3808 37.5757 53.9963C36.977 53.6118 36.5477 53.0132 36.3755 52.3228L33.5839 41.1561C33.528 40.9319 33.5001 40.7062 33.5001 40.4792C33.5001 40.7062 33.4722 40.9319 33.4164 41.1561L30.6247 52.3228C30.4525 53.0132 30.0232 53.6118 29.4246 53.9963C28.8259 54.3808 28.1029 54.5222 27.4035 54.3915C26.7041 54.2609 26.0809 53.8682 25.6613 53.2935C25.2418 52.7188 25.0574 52.0057 25.1461 51.2997L26.521 40.3047V31.3686C24.3504 31.0224 22.071 30.5311 19.5683 29.9113C18.8496 29.7332 18.231 29.277 17.8487 28.6428C17.4664 28.0087 17.3516 27.2486 17.5297 26.5299C17.7078 25.8112 18.164 25.1926 18.7982 24.8103C19.4323 24.428 20.1924 24.3132 20.9111 24.4913C25.9891 25.7503 29.7872 26.3687 33.5113 26.384C37.227 26.398 41.0139 25.8131 46.057 24.4997C46.4119 24.4072 46.7815 24.3855 47.1448 24.4359C47.508 24.4863 47.8578 24.6078 48.1741 24.7934C48.4904 24.9791 48.767 25.2252 48.9881 25.5178C49.2092 25.8103 49.3706 26.1436 49.4629 26.4985Z" fill="white"/>
</svg>
