<svg width="24" height="23" viewBox="0 0 24 23" fill="none" xmlns="http://www.w3.org/2000/svg">
<path d="M6 8.99999C5.99915 7.92087 6.2478 6.85617 6.72652 5.88905C7.20525 4.92193 7.9011 4.07859 8.7597 3.4249C9.6183 2.77122 10.6164 2.32489 11.676 2.12079C12.7357 1.91669 13.8282 1.96034 14.8682 2.24834C15.9081 2.53633 16.8674 3.06087 17.6712 3.78097C18.4749 4.50108 19.1012 5.39725 19.5012 6.39948C19.9013 7.40172 20.0642 8.48287 19.9772 9.55848C19.8903 10.6341 19.5558 11.675 19 12.6C18.4315 13.3581 17.7581 14.0315 17 14.6C16.1137 15.4348 15.4297 16.4608 15 17.6C14.6897 18.1864 14.2535 18.697 13.7228 19.0951C13.192 19.4932 12.5798 19.769 11.93 19.9028C11.2802 20.0366 10.6088 20.025 9.96393 19.869C9.31908 19.7129 8.71673 19.4161 8.2 19" stroke="white" stroke-linecap="round" stroke-linejoin="round"/>
<path d="M9.99997 8.99999C9.99397 8.4981 10.114 8.00272 10.349 7.55924C10.5841 7.11575 10.9266 6.73832 11.3453 6.46153C11.7641 6.18473 12.2455 6.01741 12.7456 5.97489C13.2458 5.93238 13.7486 6.01602 14.208 6.21817C14.6674 6.42031 15.0688 6.73449 15.3753 7.13194C15.6818 7.52939 15.8837 7.99739 15.9625 8.49309C16.0414 8.98879 15.9945 9.49634 15.8264 9.96926C15.6582 10.4422 15.3741 10.8653 15 11.2" stroke="white" stroke-linecap="round" stroke-linejoin="round"/>
</svg>
