<svg width="19" height="19" viewBox="0 0 19 19" fill="none" xmlns="http://www.w3.org/2000/svg">
<path d="M2.375 3.5625V7.52083C2.375 8.17792 2.90542 8.70833 3.5625 8.70833H7.52083C8.17792 8.70833 8.70833 8.17792 8.70833 7.52083V3.5625C8.70833 2.90542 8.17792 2.375 7.52083 2.375H3.5625C2.90542 2.375 2.375 2.90542 2.375 3.5625ZM3.95833 3.95833H7.125V7.125H3.95833V3.95833ZM2.375 15.4375C2.375 16.0946 2.90542 16.625 3.5625 16.625H7.52083C8.17792 16.625 8.70833 16.0946 8.70833 15.4375V11.4792C8.70833 10.8221 8.17792 10.2917 7.52083 10.2917H3.5625C2.90542 10.2917 2.375 10.8221 2.375 11.4792V15.4375ZM3.95833 11.875H7.125V15.0417H3.95833V11.875ZM15.4375 2.375H11.4792C10.8221 2.375 10.2917 2.90542 10.2917 3.5625V7.52083C10.2917 8.17792 10.8221 8.70833 11.4792 8.70833H15.4375C16.0946 8.70833 16.625 8.17792 16.625 7.52083V3.5625C16.625 2.90542 16.0946 2.375 15.4375 2.375ZM15.0417 7.125H11.875V3.95833H15.0417V7.125ZM10.2917 10.2917H11.875V11.875H10.2917V10.2917ZM11.875 11.875H13.4583V13.4583H11.875V11.875ZM10.2917 13.4583H11.875V15.0417H10.2917V13.4583ZM13.4583 13.4583H15.0417V15.0417H13.4583V13.4583ZM15.0417 15.0417H16.625V16.625H15.0417V15.0417ZM11.875 15.0417H13.4583V16.625H11.875V15.0417ZM13.4583 10.2917H15.0417V11.875H13.4583V10.2917ZM15.0417 11.875H16.625V13.4583H15.0417V11.875Z" fill="#51B88C"/>
</svg>
