<svg width="21" height="21" viewBox="0 0 21 21" fill="none" xmlns="http://www.w3.org/2000/svg">
<path d="M7 18.375C6.51875 18.375 6.10692 18.2038 5.7645 17.8614C5.42208 17.519 5.25058 17.1068 5.25 16.625V14.875H3.5C3.01875 14.875 2.60692 14.7038 2.2645 14.3614C1.92208 14.019 1.75058 13.6068 1.75 13.125V9.625C1.75 8.88125 2.00521 8.25796 2.51562 7.75512C3.02604 7.25229 3.64583 7.00058 4.375 7H16.625C17.3688 7 17.9923 7.25171 18.4958 7.75512C18.9992 8.25854 19.2506 8.88183 19.25 9.625V13.125C19.25 13.6063 19.0788 14.0184 18.7364 14.3614C18.394 14.7044 17.9818 14.8756 17.5 14.875H15.75V16.625C15.75 17.1063 15.5788 17.5184 15.2364 17.8614C14.894 18.2044 14.4818 18.3756 14 18.375H7ZM3.5 13.125H5.25C5.25 12.6437 5.4215 12.2319 5.7645 11.8895C6.1075 11.5471 6.51933 11.3756 7 11.375H14C14.4813 11.375 14.8934 11.5465 15.2364 11.8895C15.5794 12.2325 15.7506 12.6443 15.75 13.125H17.5V9.625C17.5 9.37708 17.416 9.16942 17.248 9.002C17.08 8.83458 16.8723 8.75058 16.625 8.75H4.375C4.12708 8.75 3.91942 8.834 3.752 9.002C3.58458 9.17 3.50058 9.37767 3.5 9.625V13.125ZM14 7V4.375H7V7H5.25V4.375C5.25 3.89375 5.4215 3.48192 5.7645 3.1395C6.1075 2.79708 6.51933 2.62558 7 2.625H14C14.4813 2.625 14.8934 2.7965 15.2364 3.1395C15.5794 3.4825 15.7506 3.89433 15.75 4.375V7H14ZM15.75 10.9375C15.9979 10.9375 16.2059 10.8535 16.3739 10.6855C16.5419 10.5175 16.6256 10.3098 16.625 10.0625C16.6244 9.81517 16.5404 9.6075 16.373 9.4395C16.2056 9.2715 15.9979 9.1875 15.75 9.1875C15.5021 9.1875 15.2944 9.2715 15.127 9.4395C14.9596 9.6075 14.8756 9.81517 14.875 10.0625C14.8744 10.3098 14.9584 10.5178 15.127 10.6864C15.2956 10.855 15.5032 10.9387 15.75 10.9375ZM14 16.625V13.125H7V16.625H14Z" fill="#51B88C"/>
</svg>
