<svg width="28" height="28" viewBox="0 0 28 28" fill="none" xmlns="http://www.w3.org/2000/svg">
<path d="M3.5 8.16667V5.83333C3.5 5.21449 3.74583 4.621 4.18342 4.18342C4.621 3.74583 5.21449 3.5 5.83333 3.5H8.16667" stroke="#2D342D" stroke-width="2" stroke-linecap="round" stroke-linejoin="round"/>
<path d="M19.8334 3.5H22.1667C22.7855 3.5 23.379 3.74583 23.8166 4.18342C24.2542 4.621 24.5 5.21449 24.5 5.83333V8.16667" stroke="#2D342D" stroke-width="2" stroke-linecap="round" stroke-linejoin="round"/>
<path d="M24.5 19.8333V22.1667C24.5 22.7855 24.2542 23.379 23.8166 23.8166C23.379 24.2542 22.7855 24.5 22.1667 24.5H19.8334" stroke="#2D342D" stroke-width="2" stroke-linecap="round" stroke-linejoin="round"/>
<path d="M8.16667 24.5H5.83333C5.21449 24.5 4.621 24.2542 4.18342 23.8166C3.74583 23.379 3.5 22.7855 3.5 22.1667V19.8333" stroke="#2D342D" stroke-width="2" stroke-linecap="round" stroke-linejoin="round"/>
</svg>
