<svg width="50" height="50" viewBox="0 0 50 50" fill="none" xmlns="http://www.w3.org/2000/svg">
<path d="M29.1667 19.8667V14.5833C29.1667 12.3732 30.0446 10.2536 31.6074 8.69078C33.1702 7.12797 35.2899 6.25 37.5 6.25H40.625C40.9013 6.25 41.1662 6.35975 41.3616 6.5551C41.5569 6.75045 41.6667 7.0154 41.6667 7.29167V10.4167C41.6667 12.6268 40.7887 14.7464 39.2259 16.3092C37.6631 17.872 35.5435 18.75 33.3333 18.75C31.1232 18.75 29.0036 19.628 27.4408 21.1908C25.878 22.7536 25 24.8732 25 27.0833C25 31.25 27.0833 33.3333 27.0833 37.5C27.0833 39.7539 26.3523 41.9469 25 43.75" stroke="white" stroke-width="2" stroke-linecap="round" stroke-linejoin="round"/>
<path d="M8.33325 18.75C9.88085 17.5893 11.7211 16.8825 13.6478 16.7088C15.5745 16.535 17.5115 16.9012 19.2417 17.7664C20.972 18.6315 22.4272 19.9614 23.4442 21.607C24.4612 23.2525 24.9999 25.1488 24.9999 27.0833C23.4523 28.244 21.6121 28.9508 19.6854 29.1246C17.7587 29.2983 15.8217 28.9321 14.0914 28.0669C12.3612 27.2018 10.906 25.8719 9.88897 24.2264C8.87195 22.5808 8.33325 20.6845 8.33325 18.75Z" stroke="white" stroke-width="2" stroke-linecap="round" stroke-linejoin="round"/>
<path d="M10.4167 43.75H39.5834" stroke="white" stroke-width="2" stroke-linecap="round" stroke-linejoin="round"/>
</svg>
