<svg width="18" height="18" viewBox="0 0 18 18" fill="none" xmlns="http://www.w3.org/2000/svg">
<circle cx="9" cy="9" r="9" fill="#DBFBED"/>
<path fill-rule="evenodd" clip-rule="evenodd" d="M13.7646 8.66255L9.41335 12.9948C8.83344 13.561 8.05347 13.8754 7.24302 13.8696C6.43257 13.8639 5.65713 13.5385 5.08529 12.9642C4.51345 12.3898 4.19143 11.613 4.18922 10.8025C4.18702 9.99203 4.50481 9.21345 5.07352 8.63601L9.42473 4.30376C10.0046 3.73757 10.7846 3.42317 11.5951 3.42891C12.4055 3.43465 13.1809 3.76006 13.7528 4.3344C14.3246 4.90874 14.6467 5.68558 14.6489 6.49605C14.6511 7.30652 14.3333 8.08511 13.7646 8.66255ZM13.0062 5.0778C12.6334 4.70382 12.1273 4.4931 11.5992 4.49188C11.0711 4.49066 10.5641 4.69905 10.1896 5.0713L5.83781 9.40355C5.46336 9.77634 5.25234 10.2826 5.25118 10.811C5.25001 11.3394 5.45879 11.8466 5.83158 12.221C6.20438 12.5955 6.71065 12.8065 7.23903 12.8077C7.76741 12.8088 8.27461 12.6001 8.64906 12.2273L13.0003 7.89501C13.3744 7.52212 13.5852 7.01597 13.5865 6.48775C13.5877 5.95952 13.3792 5.45241 13.0068 5.0778H13.0062Z" fill="#51B88C"/>
<path fill-rule="evenodd" clip-rule="evenodd" d="M7.39736 6.61721C7.49894 6.51566 7.63669 6.45862 7.78032 6.45862C7.92395 6.45862 8.0617 6.51566 8.16328 6.61721L11.4404 9.89429C11.539 9.99645 11.5936 10.1333 11.5924 10.2753C11.5912 10.4173 11.5342 10.5532 11.4338 10.6536C11.3333 10.754 11.1975 10.811 11.0555 10.8122C10.9134 10.8135 10.7766 10.7589 10.6744 10.6602L7.39736 7.38313C7.29582 7.28155 7.23877 7.1438 7.23877 7.00017C7.23877 6.85654 7.29582 6.71879 7.39736 6.61721Z" fill="#51B88C"/>
</svg>
