<svg width="24" height="24" viewBox="0 0 24 24" fill="none" xmlns="http://www.w3.org/2000/svg">
<path d="M11.675 21.875C11.575 21.8584 11.475 21.8334 11.375 21.8C9.125 21.05 7.33333 19.6624 6 17.637C4.66667 15.6117 4 13.4327 4 11.1V6.37502C4 5.95836 4.121 5.58336 4.363 5.25002C4.605 4.91669 4.91733 4.67502 5.3 4.52502L11.3 2.27502C11.5333 2.19169 11.7667 2.15002 12 2.15002C12.2333 2.15002 12.4667 2.19169 12.7 2.27502L18.7 4.52502C19.0833 4.67502 19.396 4.91669 19.638 5.25002C19.88 5.58336 20.0007 5.95836 20 6.37502V11.1C20 13.4334 19.3333 15.6127 18 17.638C16.6667 19.6634 14.875 21.0507 12.625 21.8C12.525 21.8334 12.425 21.8584 12.325 21.875C12.225 21.8917 12.1167 21.9 12 21.9C11.8833 21.9 11.775 21.8917 11.675 21.875ZM12 19.9C13.7333 19.35 15.1667 18.25 16.3 16.6C17.4333 14.95 18 13.1167 18 11.1V6.37502L12 4.12502L6 6.37502V11.1C6 13.1167 6.56667 14.95 7.7 16.6C8.83333 18.25 10.2667 19.35 12 19.9Z" fill="white"/>
<path d="M9.50008 15.1666C9.27091 15.1666 9.0748 15.0851 8.91175 14.922C8.74869 14.759 8.66703 14.5627 8.66675 14.3333V10.1666C8.66675 9.93746 8.74841 9.74135 8.91175 9.57829C9.07508 9.41524 9.27119 9.33357 9.50008 9.33329H9.91675V8.49996C9.91675 7.92357 10.1199 7.43232 10.5263 7.02621C10.9327 6.6201 11.424 6.4169 12.0001 6.41663C12.5762 6.41635 13.0676 6.61954 13.4742 7.02621C13.8809 7.43288 14.084 7.92413 14.0834 8.49996V9.33329H14.5001C14.7292 9.33329 14.9255 9.41496 15.0888 9.57829C15.2522 9.74163 15.3337 9.93774 15.3334 10.1666V14.3333C15.3334 14.5625 15.2519 14.7587 15.0888 14.922C14.9258 15.0854 14.7295 15.1669 14.5001 15.1666H9.50008ZM12.5888 12.8387C12.7519 12.6754 12.8334 12.4791 12.8334 12.25C12.8334 12.0208 12.7519 11.8247 12.5888 11.6616C12.4258 11.4986 12.2295 11.4169 12.0001 11.4166C11.7706 11.4163 11.5745 11.498 11.4117 11.6616C11.249 11.8252 11.1673 12.0213 11.1667 12.25C11.1662 12.4786 11.2479 12.6748 11.4117 12.8387C11.5756 13.0026 11.7717 13.0841 12.0001 13.0833C12.2284 13.0825 12.4247 13.0009 12.5888 12.8387ZM10.7501 9.33329H13.2501V8.49996C13.2501 8.15274 13.1286 7.8576 12.8855 7.61454C12.6424 7.37149 12.3473 7.24996 12.0001 7.24996C11.6529 7.24996 11.3577 7.37149 11.1147 7.61454C10.8716 7.8576 10.7501 8.15274 10.7501 8.49996V9.33329Z" fill="white"/>
</svg>
